Coordinates
version=1
nRows=7
nColumns=40
inDegrees=yes

Units are S.I. units (second, meters, Newtons, ...)
Angles are in degrees.

endheader
time	pelvis_tilt	pelvis_list	pelvis_rotation	pelvis_tx	pelvis_ty	pelvis_tz	hip_flexion_r	hip_adduction_r	hip_rotation_r	knee_angle_r	knee_angle_r_beta	ankle_angle_r	subtalar_angle_r	mtp_angle_r	hip_flexion_l	hip_adduction_l	hip_rotation_l	knee_angle_l	knee_angle_l_beta	ankle_angle_l	subtalar_angle_l	mtp_angle_l	lumbar_extension	lumbar_bending	lumbar_rotation	arm_flex_r	arm_add_r	arm_rot_r	elbow_flex_r	pro_sup_r	wrist_flex_r	wrist_dev_r	arm_flex_l	arm_add_l	arm_rot_l	elbow_flex_l	pro_sup_l	wrist_flex_l	wrist_dev_l
      4.71442857	     -4.49152245	     -6.30959247	      0.92480286	      0.88583065	      0.93156290	      0.55808013	      5.86822701	      6.34528699	    -21.88253341	      8.52706401	      8.52706401	     10.20168031	     10.01405157	     -7.13558667	     37.79531377	    -15.05685376	     -2.42955768	     36.43227704	     36.43227704	     10.15542147	    -15.33715151	     13.31771221	    -13.62055779	      9.19891134	      4.08737263	     38.67491005	    -19.18932895	     -0.01674087	     69.67306721	     44.96454540	      0.00000000	      0.00000000	    -10.39720193	     -6.62677374	     -2.68200578	     25.89906294	     46.72420906	      0.00000000	      0.00000000
      4.72635714	     -4.69241653	     -6.46365831	      0.91820711	      0.88498066	      0.93103196	      0.55843774	      5.21255777	      6.64266443	    -22.14691947	      7.87054749	      7.87054749	     10.45469066	     10.93798447	     -6.82952647	     38.01484983	    -14.98785449	     -2.33429238	     33.28425157	     33.28425157	      9.72284402	    -13.94210695	     12.37796523	    -13.60564670	      9.25960551	      4.55591259	     39.15699526	    -19.64322856	     -0.61899999	     74.55377666	     44.85339189	      0.00000000	      0.00000000	    -10.95979638	     -6.66357683	     -3.10676149	     24.98528056	     46.76545057	      0.00000000	      0.00000000
      4.73828571	     -4.91611908	     -6.52812454	      0.89346904	      0.88423271	      0.93047279	      0.55865564	      4.60883588	      6.84844570	    -22.15122629	      7.26337394	      7.26337394	     10.65375629	     11.37624779	     -6.74363909	     38.17491343	    -14.84694210	     -2.39961130	     30.27107344	     30.27107344	      9.67152648	    -12.41363144	     12.66617368	    -13.45864763	      9.21613997	      4.21037222	     40.69024023	    -18.95974166	     -0.70989036	     76.91593799	     44.79164075	      0.00000000	      0.00000000	    -12.05630950	     -6.71105653	     -3.14455337	     24.39106247	     46.74679537	      0.00000000	      0.00000000
      4.75021429	     -5.11929776	     -6.66275121	      0.82675686	      0.88361410	      0.92980731	      0.55885430	      3.94695047	      7.12851005	    -22.21295368	      6.61219994	      6.61219994	     10.83125174	     12.02934805	     -6.56840884	     38.32915395	    -14.83403706	     -2.57603162	     27.55217013	     27.55217013	      9.56921690	    -10.87736411	     12.98734051	    -13.37111955	      9.23403350	      4.02191291	     41.90020202	    -18.49827208	     -0.77786471	     80.09858463	     44.70446870	      0.00000000	      0.00000000	    -13.10412581	     -6.75204984	     -3.25640759	     24.12460368	     46.73871647	      0.00000000	      0.00000000
      4.76214286	     -5.33669928	     -6.75771975	      0.72306795	      0.88310872	      0.92902354	      0.55892445	      3.33940191	      7.33741170	    -22.20544370	      6.06430758	      6.06430758	     11.07865676	     12.61089329	     -6.36939203	     38.44588363	    -14.79536376	     -2.91453240	     25.08224388	     25.08224388	      9.42104014	     -9.56470633	     13.48048537	    -13.27402735	      9.22890228	      4.01949515	     42.87283026	    -18.23640985	     -0.88068047	     83.42404973	     44.61510453	      0.00000000	      0.00000000	    -14.08825064	     -6.82739054	     -3.39534976	     24.13099178	     46.73437834	      0.00000000	      0.00000000
      4.77407143	     -5.55825782	     -6.88830412	      0.60000855	      0.88268894	      0.92809244	      0.55887305	      2.76159526	      7.56475291	    -22.19977873	      5.58243676	      5.58243676	     11.37635274	     13.14642747	     -6.03866899	     38.63464476	    -14.80215732	     -3.32825685	     23.08888075	     23.08888075	      9.26045655	     -8.48218221	     14.13361127	    -13.22367112	      9.24789940	      4.23560352	     43.47931248	    -18.23029493	     -1.10045583	     87.41787235	     44.51508997	      0.00000000	      0.00000000	    -14.98403266	     -6.91163487	     -3.57132795	     24.55994886	     46.73006528	      0.00000000	      0.00000000
      4.78600000	     -5.88571235	     -7.02259861	      0.42775253	      0.88232186	      0.92688409	      0.55862631	      2.43277743	      7.73059803	    -22.00936696	      5.37267560	      5.37267560	     11.67867998	     13.31349211	     -6.04286684	     38.90446655	    -14.79554953	     -3.73323183	     21.45024261	     21.45024261	      8.94914657	     -7.80211021	     14.59232068	    -12.87673376	      9.30447503	      4.39637735	     44.73598209	    -18.11612483	     -1.23301921	     88.90669409	     44.48125436	      0.00000000	      0.00000000	    -15.69353343	     -6.96254940	     -3.60746811	     24.49184626	     46.71797541	      0.00000000	      0.00000000
